<svg xmlns="http://www.w3.org/2000/svg" xmlns:xlink="http://www.w3.org/1999/xlink" width="479" height="504" viewBox="0 0 479 504">
  <defs>
    <filter id="Rectangle_2" x="108" y="0" width="273" height="482" filterUnits="userSpaceOnUse">
      <feOffset dx="5" dy="5" input="SourceAlpha"/>
      <feGaussianBlur stdDeviation="5" result="blur"/>
      <feFlood flood-color="#1b1b1b" flood-opacity="0.349"/>
      <feComposite operator="in" in2="blur"/>
      <feComposite in="SourceGraphic"/>
    </filter>
  </defs>
  <g id="Group_5" data-name="Group 5" transform="translate(-328 -88)">
    <g id="Ellipse_1" data-name="Ellipse 1" transform="translate(328 111)" fill="#fff" stroke="#00b9ce" stroke-width="80" opacity="0.14">
      <circle cx="239.5" cy="239.5" r="239.5" stroke="none"/>
      <circle cx="239.5" cy="239.5" r="199.5" fill="none"/>
    </g>
    <path id="Polygon_1" data-name="Polygon 1" d="M129,0,258,199H0Z" transform="translate(435 393)" fill="#fff"/>
    <g transform="matrix(1, 0, 0, 1, 328, 88)" filter="url(#Rectangle_2)">
      <g id="Rectangle_2-2" data-name="Rectangle 2" transform="translate(118 10)" stroke="#000" stroke-width="10">
        <rect width="243" height="452" rx="29" stroke="none"/>
        <rect x="5" y="5" width="233" height="442" rx="24" fill="none"/>
      </g>
    </g>
    <rect id="Rectangle_3" data-name="Rectangle 3" width="223" height="431" rx="29" transform="translate(456 111)" fill="#fff"/>
    <path id="Path_1" data-name="Path 1" d="M499.544,104.739c14.272-2.84,11.893,10.042,11.893,10.042" transform="translate(-1.172 30.279) rotate(-3)" fill="none" stroke="#000" stroke-width="5"/>
    <path id="Path_2" data-name="Path 2" d="M499.544,104.739c14.272-2.84,11.893,10.042,11.893,10.042" transform="matrix(0.174, -0.985, 0.985, 0.174, 425.751, 591.086)" fill="none" stroke="#010101" stroke-width="8"/>
    <g id="Group_3" data-name="Group 3">
      <g id="Group_2" data-name="Group 2">
        <rect id="Rectangle_4" data-name="Rectangle 4" width="107" height="22" rx="11" transform="translate(513 105)" fill="#060606"/>
        <g id="Rectangle_5" data-name="Rectangle 5" transform="translate(545 112)" fill="#707070" stroke="#707070" stroke-width="1">
          <rect width="39" height="5" rx="2.5" stroke="none"/>
          <rect x="0.5" y="0.5" width="38" height="4" rx="2" fill="none"/>
        </g>
        <g id="Ellipse_2" data-name="Ellipse 2" transform="translate(593 111)" fill="#707070" stroke="#707070" stroke-width="1">
          <circle cx="4" cy="4" r="4" stroke="none"/>
          <circle cx="4" cy="4" r="3.5" fill="none"/>
        </g>
      </g>
    </g>
    <g id="Group_1" data-name="Group 1">
      <line id="Line_1" data-name="Line 1" y1="1" x2="223" transform="translate(456.5 160.5)" fill="none" stroke="#ccc" stroke-width="1"/>
      <g id="Icon_ionic-ios-menu" data-name="Icon ionic-ios-menu" transform="translate(467.1 126.5)">
        <path id="Path_3" data-name="Path 3" d="M23.684,12.375H5.334c-.459,0-.834-.506-.834-1.125h0c0-.619.375-1.125.834-1.125h18.35c.459,0,.834.506.834,1.125h0C24.519,11.869,24.143,12.375,23.684,12.375Z"/>
        <path id="Path_4" data-name="Path 4" d="M23.684,19.125H5.334c-.459,0-.834-.506-.834-1.125h0c0-.619.375-1.125.834-1.125h18.35c.459,0,.834.506.834,1.125h0C24.519,18.619,24.143,19.125,23.684,19.125Z" transform="translate(0 -0.998)"/>
        <path id="Path_5" data-name="Path 5" d="M23.684,25.875H5.334c-.459,0-.834-.506-.834-1.125h0c0-.619.375-1.125.834-1.125h18.35c.459,0,.834.506.834,1.125h0C24.519,25.369,24.143,25.875,23.684,25.875Z" transform="translate(0 -1.996)"/>
      </g>
      <text id="AssassinFx" transform="translate(502 151)" fill="#707070" font-size="20" font-family="Arial-BoldMT, Arial" font-weight="700"><tspan x="0" y="0">Assassin</tspan><tspan y="0" fill="#05cee4">Fx</tspan></text>
    </g>
    <rect id="Rectangle_6" data-name="Rectangle 6" width="6" height="26" rx="3" transform="translate(443 155)"/>
    <rect id="Rectangle_7" data-name="Rectangle 7" width="6" height="30" rx="3" transform="translate(443 189)"/>
    <rect id="Rectangle_9" data-name="Rectangle 9" width="6" height="30" rx="3" transform="translate(685 189)"/>
    <rect id="Rectangle_8" data-name="Rectangle 8" width="6" height="30" rx="3" transform="translate(443 227)"/>
    <rect id="Rectangle_11" data-name="Rectangle 11" width="223" height="87" transform="translate(456 308)" fill="#00b9ce" opacity="0.08"/>
    <g id="Group_4" data-name="Group 4" transform="translate(0 15)">
      <rect id="Rectangle_10" data-name="Rectangle 10" width="223" height="40" transform="translate(456 253)" fill="#05cee4"/>
      <line id="Line_2" data-name="Line 2" x2="10" y2="9" transform="translate(644.5 268.5)" fill="none" stroke="#fff" stroke-width="3"/>
      <line id="Line_3" data-name="Line 3" x1="9" y2="10" transform="translate(652.5 267.5)" fill="none" stroke="#fff" stroke-width="3"/>
      <path id="Icon_awesome-chart-line" data-name="Icon awesome-chart-line" d="M19.1,19.917H2.465V5.271A.706.706,0,0,0,1.849,4.5H.616A.706.706,0,0,0,0,5.271V21.458A1.413,1.413,0,0,0,1.232,23H19.1a.706.706,0,0,0,.616-.771V20.688A.706.706,0,0,0,19.1,19.917ZM17.87,6.042H13.323c-.823,0-1.236,1.245-.654,1.974l1.248,1.561-2.826,3.535L8.266,9.577a1.066,1.066,0,0,0-1.743,0L3.878,12.886a.913.913,0,0,0,0,1.09l.871,1.09a.533.533,0,0,0,.872,0l1.774-2.22,2.826,3.535a1.066,1.066,0,0,0,1.743,0l3.7-4.625,1.248,1.561c.582.728,1.578.212,1.578-.818V6.813A.706.706,0,0,0,17.87,6.042Z" transform="translate(471.9 258.5)" fill="#fff"/>
    </g>
    <text id="Academy" transform="translate(501 295)" fill="#fff" font-size="18" font-family="Arial-BoldMT, Arial" font-weight="700"><tspan x="0" y="0">Academy</tspan></text>
    <rect id="Rectangle_12" data-name="Rectangle 12" width="127" height="31" transform="translate(504 348)" fill="#222"/>
    <text id="Buy_Now" data-name="Buy Now" transform="translate(548 367)" fill="#fff" font-size="10" font-family="ArialMT, Arial"><tspan x="0" y="0">Buy Now</tspan></text>
    <text id="_450" data-name="$450" transform="translate(525 336)" fill="#07aabb" font-size="20" font-family="Tahoma-Bold, Tahoma" font-weight="700"><tspan x="0" y="0">$450</tspan></text>
    <text id="_mo" data-name="/mo" transform="translate(577 334)" fill="#222" font-size="15" font-family="ArialMT, Arial" opacity="0.69"><tspan x="0" y="0">/mo</tspan></text>
    <text id="Our_Process" data-name="Our Process" transform="translate(472 185)" fill="#222" font-size="23" font-family="Arial-BoldMT, Arial" font-weight="700"><tspan x="0" y="0">Our Process</tspan></text>
    <text id="The_goal_is_to_walk_you_down_the_ultimate_pathway_towars_being_your_own_boss._The_long_term_goal_is_financial_freedom._A_comprehensive_academy_has_been_designed_for_students_to_offer_insight_into_Forex_Indicies_crypto_and_metals." data-name="The goal is to walk you down the ultimate
pathway towars being your own boss.
The long term goal is financial freedom. A
comprehensive academy has been designed
for students to offer insight into Forex,Indicies
crypto, and metals." transform="translate(475 197)" fill="#222" font-size="10" font-family="ArialMT, Arial" opacity="0.75"><tspan x="0" y="0">The goal is to walk you down the ultimate</tspan><tspan x="0" y="13">pathway towars being your own boss.</tspan><tspan x="0" y="26">The long term goal is financial freedom. A</tspan><tspan x="0" y="39">comprehensive academy has been designed</tspan><tspan x="0" y="52">for students to offer insight into Forex,Indicies</tspan><tspan x="0" y="65">crypto, and metals.</tspan></text>
    <rect id="Rectangle_13" data-name="Rectangle 13" width="223" height="56" transform="translate(456 446)" fill="#ebfafb"/>
    <path id="Icon_feather-check" data-name="Icon feather-check" d="M20,9,10.375,19,6,14.455" transform="translate(465 507)" fill="none" stroke="#05cee4" stroke-linecap="round" stroke-linejoin="round" stroke-width="3"/>
    <path id="Icon_feather-check-2" data-name="Icon feather-check" d="M20,9,10.375,19,6,14.455" transform="translate(466 456)" fill="none" stroke="#05cee4" stroke-linecap="round" stroke-linejoin="round" stroke-width="3"/>
    <path id="Icon_feather-check-3" data-name="Icon feather-check" d="M20,9,10.375,19,6,14.455" transform="translate(466 407)" fill="none" stroke="#05cee4" stroke-linecap="round" stroke-linejoin="round" stroke-width="3"/>
    <text id="Month-to-Month_Income_Generation." data-name="Month-to-Month Income
Generation." transform="translate(497 422)" fill="#222" font-size="13" font-family="ArialMT, Arial" opacity="0.6"><tspan x="0" y="0">Month-to-Month Income</tspan><tspan x="0" y="15">Generation.</tspan></text>
    <text id="Premium_Educational_Resources_and_Weekly_Webinar." data-name="Premium Educational 
Resources and Weekly
Webinar." transform="translate(497 462)" fill="#222" font-size="13" font-family="ArialMT, Arial" opacity="0.6"><tspan x="0" y="0">Premium Educational </tspan><tspan x="0" y="15">Resources and Weekly</tspan><tspan x="0" y="30">Webinar.</tspan></text>
    <text id="Opportunity_For_Long_Term" data-name="Opportunity For Long Term" transform="translate(497 525)" fill="#222" font-size="13" font-family="ArialMT, Arial" opacity="0.6"><tspan x="0" y="0">Opportunity For Long Term</tspan></text>
  </g>
</svg>
