<svg id="Component_1_1" data-name="Component 1 – 1" xmlns="http://www.w3.org/2000/svg" width="243" height="64" viewBox="0 0 243 64">
  <text id="AssasinFx" transform="translate(56 46)" fill="#fff" font-size="40" font-family="Sofia-Regular, Sofia"><tspan x="0" y="0">AssasinFx</tspan></text>
  <path id="Icon_awesome-chart-bar" data-name="Icon awesome-chart-bar" d="M27.911,25.779h3.221a1.149,1.149,0,0,0,1.074-1.064V13.543a1.149,1.149,0,0,0-1.074-1.064H27.911a1.149,1.149,0,0,0-1.074,1.064V24.715a1.149,1.149,0,0,0,1.074,1.064Zm8.051,0h3.221a1.149,1.149,0,0,0,1.074-1.064V5.564A1.149,1.149,0,0,0,39.183,4.5H35.963a1.149,1.149,0,0,0-1.074,1.064V24.715a1.149,1.149,0,0,0,1.074,1.064Zm-24.154,0h3.221A1.149,1.149,0,0,0,16.1,24.715V18.863A1.149,1.149,0,0,0,15.029,17.8H11.809a1.149,1.149,0,0,0-1.074,1.064v5.852a1.149,1.149,0,0,0,1.074,1.064Zm8.051,0h3.221a1.149,1.149,0,0,0,1.074-1.064V8.224A1.149,1.149,0,0,0,23.081,7.16H19.86a1.149,1.149,0,0,0-1.074,1.064V24.715A1.149,1.149,0,0,0,19.86,25.779ZM41.6,31.1H5.368V5.83A1.336,1.336,0,0,0,4.026,4.5H1.342A1.336,1.336,0,0,0,0,5.83V33.758a2.672,2.672,0,0,0,2.684,2.66H41.6a1.336,1.336,0,0,0,1.342-1.33v-2.66A1.336,1.336,0,0,0,41.6,31.1Z" transform="translate(0 14.5)" fill="#3fd9e4"/>
</svg>
